# xmcd
#
# Track frame offsets:
#	150
#	19933
#	38957
#	58740
#
# Disc length: 1036 seconds
#
# Revision: 0
# Processed by: cddbd v1.5.2PL0 Copyright (c) Steve Scherf et al.
# Submitted via: audiograbber 1.83.01
#
DISCID=30040a04
DTITLE=Tim McGraw - Tim McGraw
DYEAR=2003
DGENRE=Country
TTITLE0=Shes my kind of rain
TTITLE1=The Cowboy in Me
TTITLE2=Shes my kind of rain (vocal)
TTITLE3=The Cowboy in Me (vocal)
EXTD=
EXTT0=
EXTT1=
EXTT2=
EXTT3=
PLAYORDER=
